<svg xmlns="http://www.w3.org/2000/svg" width="48" height="48" viewBox="0 0 48 48" version="1.1">
	<path d="M 0 24.018 L 0 48.036 24.250 47.768 L 48.500 47.500 48.768 23.750 L 49.036 0 24.518 0 L 0 0 0 24.018 M 0.431 24.500 C 0.432 37.700, 0.574 42.962, 0.747 36.193 C 0.921 29.424, 0.920 18.624, 0.746 12.193 C 0.572 5.762, 0.431 11.300, 0.431 24.500 M 27.500 9.688 C 25.060 10.631, 20.811 11.171, 16.605 11.072 L 9.711 10.910 10.320 16.057 C 10.825 20.315, 10.506 22.042, 8.475 26.049 C 7.125 28.714, 6.356 31.102, 6.768 31.356 C 7.179 31.610, 9.312 32.139, 11.508 32.531 C 15.932 33.321, 20.664 35.866, 23.471 38.968 C 24.482 40.085, 25.578 40.990, 25.905 40.978 C 26.232 40.966, 27.816 38.995, 29.424 36.599 C 31.274 33.841, 34.291 31.191, 37.643 29.377 L 42.938 26.513 39.070 22.506 C 36.780 20.135, 34.926 17.072, 34.526 15 C 32.999 7.087, 33.414 7.401, 27.500 9.688" stroke="none" fill="black" fill-rule="evenodd"/>
</svg>